<svg width="28" height="16" viewBox="0 0 28 16" fill="none" xmlns="http://www.w3.org/2000/svg">
<path d="M2 4C3.10457 4 4 3.10457 4 2C4 0.89543 3.10457 0 2 0C0.89543 0 0 0.89543 0 2C0 3.10457 0.89543 4 2 4Z" fill="black"/>
<path d="M2 10C3.10457 10 4 9.10457 4 8C4 6.89543 3.10457 6 2 6C0.89543 6 0 6.89543 0 8C0 9.10457 0.89543 10 2 10Z" fill="black"/>
<path d="M2 16C3.10457 16 4 15.1046 4 14C4 12.8954 3.10457 12 2 12C0.89543 12 0 12.8954 0 14C0 15.1046 0.89543 16 2 16Z" fill="black"/>
<path d="M8 4C9.10457 4 10 3.10457 10 2C10 0.89543 9.10457 0 8 0C6.89543 0 6 0.89543 6 2C6 3.10457 6.89543 4 8 4Z" fill="black"/>
<path d="M8 10C9.10457 10 10 9.10457 10 8C10 6.89543 9.10457 6 8 6C6.89543 6 6 6.89543 6 8C6 9.10457 6.89543 10 8 10Z" fill="black"/>
<path d="M8 16C9.10457 16 10 15.1046 10 14C10 12.8954 9.10457 12 8 12C6.89543 12 6 12.8954 6 14C6 15.1046 6.89543 16 8 16Z" fill="black"/>
<path d="M14 4C15.1046 4 16 3.10457 16 2C16 0.89543 15.1046 0 14 0C12.8954 0 12 0.89543 12 2C12 3.10457 12.8954 4 14 4Z" fill="black"/>
<path d="M14 10C15.1046 10 16 9.10457 16 8C16 6.89543 15.1046 6 14 6C12.8954 6 12 6.89543 12 8C12 9.10457 12.8954 10 14 10Z" fill="black"/>
<path d="M14 16C15.1046 16 16 15.1046 16 14C16 12.8954 15.1046 12 14 12C12.8954 12 12 12.8954 12 14C12 15.1046 12.8954 16 14 16Z" fill="black"/>
<path d="M20 4C21.1046 4 22 3.10457 22 2C22 0.89543 21.1046 0 20 0C18.8954 0 18 0.89543 18 2C18 3.10457 18.8954 4 20 4Z" fill="black"/>
<path d="M20 10C21.1046 10 22 9.10457 22 8C22 6.89543 21.1046 6 20 6C18.8954 6 18 6.89543 18 8C18 9.10457 18.8954 10 20 10Z" fill="black"/>
<path d="M20 16C21.1046 16 22 15.1046 22 14C22 12.8954 21.1046 12 20 12C18.8954 12 18 12.8954 18 14C18 15.1046 18.8954 16 20 16Z" fill="black"/>
<path d="M26 4C27.1046 4 28 3.10457 28 2C28 0.89543 27.1046 0 26 0C24.8954 0 24 0.89543 24 2C24 3.10457 24.8954 4 26 4Z" fill="black"/>
<path d="M26 10C27.1046 10 28 9.10457 28 8C28 6.89543 27.1046 6 26 6C24.8954 6 24 6.89543 24 8C24 9.10457 24.8954 10 26 10Z" fill="black"/>
<path d="M26 16C27.1046 16 28 15.1046 28 14C28 12.8954 27.1046 12 26 12C24.8954 12 24 12.8954 24 14C24 15.1046 24.8954 16 26 16Z" fill="black"/>
</svg>
