<svg xmlns="http://www.w3.org/2000/svg" xmlns:xlink="http://www.w3.org/1999/xlink" viewBox="0 0 48 54.48"><defs><style>.cls-1,.cls-2{fill:none;}.cls-1{clip-rule:evenodd;}.cls-3{clip-path:url(#clip-path);}.cls-4{clip-path:url(#clip-path-2);}</style><clipPath id="clip-path" transform="translate(4.28 4.08)"><path class="cls-1" d="M35.72,42.4h-32v-30h6v3a1.5,1.5,0,1,0,3,0v-3h14v3a1.5,1.5,0,1,0,3,0v-3h6Zm-16-38.5a7.46,7.46,0,0,1,6.72,5.5H13A7.46,7.46,0,0,1,19.72,3.9Zm16,5.5H29.5a9.88,9.88,0,0,0-19.56,0H3.72a3,3,0,0,0-3,3v30a3,3,0,0,0,3,3h32a3,3,0,0,0,3-3v-30A3,3,0,0,0,35.72,9.4Z"/></clipPath><clipPath id="clip-path-2" transform="translate(4.28 4.08)"><rect class="cls-2" x="-348" y="-1438" width="1000" height="3060"/></clipPath></defs><title>Vector Smart Object2</title><g class="cls-3"><g class="cls-4"><rect width="48" height="54.48"/></g></g></svg>