<svg width="55" height="55" viewBox="0 0 55 55" fill="none" xmlns="http://www.w3.org/2000/svg">
<path d="M31.0146 41.0541L24.0605 34.1001" stroke="#D7DBE0" stroke-width="3" stroke-miterlimit="10" stroke-linecap="round" stroke-linejoin="round"/>
<path d="M30.9384 34.1758L23.9844 41.1298" stroke="#D7DBE0" stroke-width="3" stroke-miterlimit="10" stroke-linecap="round" stroke-linejoin="round"/>
<path d="M19.4323 2.21265L10.2783 11.392" stroke="#D7DBE0" stroke-width="3" stroke-miterlimit="10" stroke-linecap="round" stroke-linejoin="round"/>
<path d="M35.5664 2.21265L44.7204 11.392" stroke="#D7DBE0" stroke-width="3" stroke-miterlimit="10" stroke-linecap="round" stroke-linejoin="round"/>
<path d="M2.21191 17.0057C2.21191 12.3276 4.71536 11.9482 7.82571 11.9482H47.1728C50.2832 11.9482 52.7866 12.3276 52.7866 17.0057C52.7866 22.4425 50.2832 22.0632 47.1728 22.0632H7.82571C4.71536 22.0632 2.21191 22.4425 2.21191 17.0057Z" stroke="#D7DBE0" stroke-width="3"/>
<path d="M6.00488 22.4426L9.5704 44.2909C10.3796 49.1967 12.3267 52.7875 19.5589 52.7875H34.8072C42.6716 52.7875 43.8348 49.3484 44.7451 44.5944L48.9934 22.4426" stroke="#D7DBE0" stroke-width="3" stroke-linecap="round"/>
</svg>
