<svg xmlns="http://www.w3.org/2000/svg" xmlns:xlink="http://www.w3.org/1999/xlink" viewBox="0 0 53.99 48.01"><defs><style>.cls-1,.cls-2{fill:none;}.cls-1{clip-rule:evenodd;}.cls-3{clip-path:url(#clip-path);}.cls-4{clip-path:url(#clip-path-2);}</style><clipPath id="clip-path" transform="translate(4.27 4.6)"><path class="cls-1" d="M31.73.4c-2.37,0-5.13,1.49-9,4.91C18.86,1.89,16.1.4,13.73.4A12.71,12.71,0,0,0,2.05,18.75C4,22.54,16.83,34.17,20.73,37.64a3,3,0,0,0,4,0c3.91-3.47,16.8-15.1,18.69-18.91A12.73,12.73,0,0,0,31.73.4Zm0,3a9.81,9.81,0,0,1,10,10,10.26,10.26,0,0,1-1,4c-1.78,3.58-18,18-18,18S6.53,21,4.73,17.4a9,9,0,0,1-1-4,9.84,9.84,0,0,1,10-10c2.69,0,7.2,4.27,9,6C24.53,7.68,29,3.4,31.73,3.4Z"/></clipPath><clipPath id="clip-path-2" transform="translate(4.27 4.6)"><rect class="cls-2" x="-82" y="-1271" width="1000" height="3060"/></clipPath></defs><title>Vector Smart Object1</title><g class="cls-3"><g class="cls-4"><rect width="53.99" height="48.01"/></g></g></svg>