<svg width="20" height="17" viewBox="0 0 20 17" fill="none" xmlns="http://www.w3.org/2000/svg">
<path d="M18.3887 1.55421C17.3506 0.55606 15.9769 0 14.5491 0C13.1212 0 11.7475 0.55606 10.7094 1.55421L10 2.24289L9.29063 1.55421C8.25514 0.549292 6.87729 -0.00765789 5.44682 0.000470637C4.01902 -0.00635871 2.64421 0.550561 1.61125 1.55421C1.10276 2.0382 0.697356 2.6234 0.420188 3.27353C0.14302 3.92365 0 4.62483 0 5.33357C0 6.0423 0.14302 6.74348 0.420188 7.3936C0.697356 8.04373 1.10276 8.62894 1.61125 9.11292L9.4391 16.7724C9.51585 16.8408 9.60199 16.8974 9.6948 16.9404C9.89078 17.0199 10.1092 17.0199 10.3052 16.9404C10.398 16.8974 10.4841 16.8408 10.5609 16.7724L18.3887 9.11292C18.8972 8.62894 19.3026 8.04373 19.5798 7.3936C19.857 6.74348 20 6.0423 20 5.33357C20 4.62483 19.857 3.92365 19.5798 3.27353C19.3026 2.6234 18.8972 2.0382 18.3887 1.55421ZM18.3887 5.31677C18.3911 5.81361 18.2943 6.30576 18.1043 6.7634C17.9143 7.22103 17.6351 7.63463 17.2834 7.97912L10 15.1179L2.7248 7.97912C2.36775 7.63749 2.08319 7.22502 1.88868 6.76713C1.69417 6.30925 1.59382 5.81565 1.59382 5.31677C1.59382 4.81789 1.69417 4.32429 1.88868 3.86641C2.08319 3.40852 2.36775 2.99605 2.7248 2.65442C3.45741 1.94171 4.43359 1.54714 5.44682 1.55421C6.46509 1.5463 7.44671 1.94068 8.18532 2.65442L9.4391 3.88901C9.51585 3.95737 9.60199 4.01396 9.6948 4.05698C9.89078 4.13645 10.1092 4.13645 10.3052 4.05698C10.398 4.01396 10.4841 3.95737 10.5609 3.88901L11.8229 2.65442C12.5555 1.94171 13.5317 1.54714 14.5449 1.55421C15.5632 1.5463 16.5448 1.94068 17.2834 2.65442C17.6381 2.99747 17.9204 3.41042 18.1133 3.86813C18.3061 4.32583 18.4055 4.81872 18.4052 5.31677H18.3887Z" fill="#111111"/>
</svg>
